<svg width="101" height="101" viewBox="0 0 101 101" fill="none" xmlns="http://www.w3.org/2000/svg">
<path d="M87.1613 30.8557L87.4442 30.5323L89.9907 27.9859L94.5986 23.3779C96.7005 21.2761 97.8727 18.4871 97.8727 15.5364C97.8727 12.5857 96.7005 9.79668 94.5986 7.69482L93.3052 6.40137C89.1014 2.19766 81.8258 2.19766 77.6221 6.40137L73.0141 11.0093L7.53314 76.4903L7.08852 76.9349L2.52102 98.479L24.0651 93.9115L87.1613 30.8557ZM80.4919 9.2308C83.1597 6.60348 87.7676 6.56305 90.4353 9.2308L91.7692 10.5647C93.1031 11.8985 93.8306 13.6366 93.8306 15.5364C93.8306 17.4361 93.1031 19.1742 91.7692 20.5081L87.1613 25.116L75.884 13.8387L80.4919 9.2308ZM73.0141 16.7086L77.2179 20.9123L16.0214 82.1087L11.8177 77.905L73.0141 16.7086ZM7.77567 93.2243L10.1605 81.9875L19.0125 90.8395L7.77567 93.2243ZM23.095 89.1823L18.8913 84.9786L80.0877 23.7821L84.2914 27.9859L23.095 89.1823ZM29.158 49.1661L0.5 20.5081L20.5081 0.5L49.1661 29.158L40.4757 37.6463L37.6059 34.7765L43.3052 29.0772L37.6059 23.3375L29.1176 31.8662L26.2478 28.9964L34.7361 20.5081L29.0368 14.7684L23.2971 20.5081L20.4272 17.6382L26.1669 11.8985L20.4677 6.19927L6.15885 20.5081L31.9875 46.3367L29.1176 49.1661H29.158ZM100.5 80.4919L80.4919 100.5L51.8339 71.842L54.7037 69.0125L80.4919 94.8007L94.8007 80.4919L89.1014 74.7926L80.5728 83.2809L77.7029 80.4111L86.2316 71.8824L80.4919 66.1831L74.7926 71.8824L71.9228 69.0125L77.6221 63.2728L71.8824 57.5736L63.3941 66.0618L60.5242 63.192L71.8015 51.753L100.46 80.4111L100.5 80.4919Z" fill="#2E68FF"/>
</svg>
