<svg width="100" height="100" viewBox="0 0 100 100" fill="none" xmlns="http://www.w3.org/2000/svg">
<g clip-path="url(#clip0_109_56)">
<path d="M85.8562 77.6831C84.1617 77.6844 82.5048 77.183 81.0952 76.2424C79.6856 75.3019 78.5866 73.9644 77.9372 72.3991C77.2879 70.8339 77.1173 69.1112 77.4472 67.449C77.777 65.7869 78.5924 64.2598 79.7902 63.0611C80.9881 61.8624 82.5145 61.0459 84.1764 60.7149C85.8384 60.3838 87.5612 60.5531 89.1269 61.2013C90.6926 61.8495 92.0309 62.9475 92.9725 64.3564C93.9141 65.7654 94.4167 67.4219 94.4167 69.1165C94.4156 71.3871 93.5135 73.5645 91.9085 75.1706C90.3036 76.7767 88.1268 77.6804 85.8562 77.6831ZM85.8562 63.6748C84.7797 63.6736 83.727 63.9917 82.8313 64.5889C81.9356 65.186 81.2372 66.0355 80.8243 67.0297C80.4115 68.0239 80.3029 69.1183 80.5121 70.1743C80.7214 71.2302 81.2392 72.2004 82 72.9621C82.7607 73.7238 83.7303 74.2426 84.7861 74.4531C85.8418 74.6636 86.9363 74.5562 87.931 74.1445C88.9257 73.7328 89.7759 73.0354 90.3741 72.1403C90.9724 71.2453 91.2917 70.193 91.2917 69.1165C91.2911 67.6745 90.7185 66.2917 89.6994 65.2715C88.6804 64.2512 87.2982 63.677 85.8562 63.6748Z" fill="black"/>
<path d="M40.7125 77.6831C39.0178 77.6848 37.3607 77.1838 35.9508 76.2434C34.5409 75.3031 33.4416 73.9658 32.7919 72.4006C32.1423 70.8354 31.9714 69.1126 32.301 67.4503C32.6307 65.788 33.4459 64.2608 34.6436 63.0619C35.8414 61.863 37.3678 61.0462 39.0298 60.715C40.6918 60.3838 42.4147 60.553 43.9805 61.2011C45.5464 61.8493 46.8848 62.9473 47.8265 64.3562C48.7681 65.7652 49.2708 67.4218 49.2708 69.1165C49.2691 71.3865 48.3672 73.5633 46.7628 75.1692C45.1584 76.7752 42.9825 77.6793 40.7125 77.6831ZM40.7125 63.6748C39.6358 63.6732 38.5829 63.9909 37.687 64.5878C36.791 65.1848 36.0922 66.0341 35.6791 67.0283C35.2659 68.0224 35.157 69.1168 35.366 70.173C35.575 71.2291 36.0926 72.1995 36.8533 72.9614C37.614 73.7232 38.5836 74.2423 39.6394 74.453C40.6952 74.6636 41.7898 74.5563 42.7846 74.1447C43.7794 73.7331 44.6298 73.0356 45.2281 72.1406C45.8264 71.2455 46.1458 70.1931 46.1458 69.1165C46.1447 67.675 45.5722 66.2928 44.5537 65.2728C43.5352 64.2528 42.1539 63.6781 40.7125 63.6748Z" fill="black"/>
<path d="M97.127 70.6786H92.8541C92.4397 70.6786 92.0423 70.514 91.7493 70.221C91.4562 69.928 91.2916 69.5305 91.2916 69.1161C91.2916 68.7017 91.4562 68.3043 91.7493 68.0113C92.0423 67.7183 92.4397 67.5536 92.8541 67.5536H96.6854V59.2682C96.6844 58.148 96.3975 57.0466 95.852 56.0682L87.3937 40.9036C87.3214 40.7742 87.216 40.6664 87.0882 40.5913C86.9603 40.5163 86.8148 40.4767 86.6666 40.4766H75.1395V67.5599H78.8604C79.2748 67.5599 79.6722 67.7245 79.9652 68.0175C80.2582 68.3106 80.4229 68.708 80.4229 69.1224C80.4229 69.5368 80.2582 69.9342 79.9652 70.2273C79.6722 70.5203 79.2748 70.6849 78.8604 70.6849H73.577C73.1626 70.6849 72.7652 70.5203 72.4722 70.2273C72.1791 69.9342 72.0145 69.5368 72.0145 69.1224V38.9141C72.0145 38.4997 72.1791 38.1022 72.4722 37.8092C72.7652 37.5162 73.1626 37.3516 73.577 37.3516H86.6666C87.3715 37.3512 88.0637 37.5391 88.6717 37.8959C89.2797 38.2526 89.7814 38.7652 90.1249 39.3807L98.5812 54.5474C99.3851 55.991 99.8075 57.6159 99.8083 59.2682V67.9974C99.8072 68.7082 99.5243 69.3895 99.0217 69.8921C98.5191 70.3947 97.8378 70.6775 97.127 70.6786Z" fill="black"/>
<path d="M33.7145 70.6788H18.7333C18.3189 70.6788 17.9214 70.5142 17.6284 70.2211C17.3354 69.9281 17.1708 69.5307 17.1708 69.1163V57.0996C17.1708 56.6852 17.3354 56.2878 17.6284 55.9948C17.9214 55.7017 18.3189 55.5371 18.7333 55.5371C19.1477 55.5371 19.5451 55.7017 19.8381 55.9948C20.1312 56.2878 20.2958 56.6852 20.2958 57.0996V67.5538H33.7145C34.1289 67.5538 34.5264 67.7184 34.8194 68.0114C35.1124 68.3044 35.277 68.7019 35.277 69.1163C35.277 69.5307 35.1124 69.9281 34.8194 70.2211C34.5264 70.5142 34.1289 70.6788 33.7145 70.6788Z" fill="black"/>
<path d="M18.7333 51.5561C18.3189 51.5561 17.9214 51.3915 17.6284 51.0985C17.3354 50.8054 17.1708 50.408 17.1708 49.9936V39.502C17.1708 39.0876 17.3354 38.6901 17.6284 38.3971C17.9214 38.1041 18.3189 37.9395 18.7333 37.9395C19.1477 37.9395 19.5451 38.1041 19.8381 38.3971C20.1312 38.6901 20.2958 39.0876 20.2958 39.502V49.9999C20.2941 50.4132 20.1288 50.809 19.8359 51.1007C19.5431 51.3924 19.1466 51.5561 18.7333 51.5561Z" fill="black"/>
<path d="M73.577 70.6788H47.7083C47.2939 70.6788 46.8964 70.5142 46.6034 70.2212C46.3104 69.9282 46.1458 69.5307 46.1458 69.1163C46.1458 68.7019 46.3104 68.3045 46.6034 68.0115C46.8964 67.7185 47.2939 67.5538 47.7083 67.5538H72.0145V26.6768H20.2958V33.1122C20.2958 33.5266 20.1312 33.924 19.8381 34.217C19.5451 34.5101 19.1477 34.6747 18.7333 34.6747C18.3189 34.6747 17.9214 34.5101 17.6284 34.217C17.3354 33.924 17.1708 33.5266 17.1708 33.1122V26.3893C17.1719 25.6367 17.4715 24.9153 18.0038 24.3833C18.5362 23.8514 19.2578 23.5523 20.0104 23.5518H72.302C73.0542 23.5529 73.7753 23.8522 74.3072 24.3841C74.8391 24.916 75.1384 25.637 75.1395 26.3893V69.1163C75.1395 69.5307 74.9749 69.9282 74.6819 70.2212C74.3889 70.5142 73.9914 70.6788 73.577 70.6788Z" fill="black"/>
<path d="M24.9105 58.6621H5.07922C4.66482 58.6621 4.26739 58.4975 3.97437 58.2045C3.68134 57.9114 3.51672 57.514 3.51672 57.0996C3.51672 56.6852 3.68134 56.2878 3.97437 55.9948C4.26739 55.7017 4.66482 55.5371 5.07922 55.5371H24.9105C25.3249 55.5371 25.7223 55.7017 26.0153 55.9948C26.3084 56.2878 26.473 56.6852 26.473 57.0996C26.473 57.514 26.3084 57.9114 26.0153 58.2045C25.7223 58.4975 25.3249 58.6621 24.9105 58.6621Z" fill="black"/>
<path d="M40.7125 51.5566H13.0396C12.6252 51.5566 12.2277 51.392 11.9347 51.099C11.6417 50.806 11.4771 50.4085 11.4771 49.9941C11.4771 49.5797 11.6417 49.1823 11.9347 48.8893C12.2277 48.5963 12.6252 48.4316 13.0396 48.4316H40.7125C41.1269 48.4316 41.5243 48.5963 41.8173 48.8893C42.1103 49.1823 42.275 49.5797 42.275 49.9941C42.275 50.4085 42.1103 50.806 41.8173 51.099C41.5243 51.392 41.1269 51.5566 40.7125 51.5566Z" fill="black"/>
<path d="M12.1792 43.3066H1.37292C0.958524 43.3066 0.561096 43.142 0.26807 42.849C-0.0249552 42.556 -0.189575 42.1585 -0.189575 41.7441C-0.189575 41.3297 -0.0249552 40.9323 0.26807 40.6393C0.561096 40.3463 0.958524 40.1816 1.37292 40.1816H12.1792C12.5936 40.1816 12.991 40.3463 13.284 40.6393C13.5771 40.9323 13.7417 41.3297 13.7417 41.7441C13.7417 42.1585 13.5771 42.556 13.284 42.849C12.991 43.142 12.5936 43.3066 12.1792 43.3066Z" fill="black"/>
<path d="M29.5063 34.6748H10.4313C10.0169 34.6748 9.61945 34.5102 9.32642 34.2172C9.03339 33.9241 8.86877 33.5267 8.86877 33.1123C8.86877 32.6979 9.03339 32.3005 9.32642 32.0075C9.61945 31.7144 10.0169 31.5498 10.4313 31.5498H29.5063C29.9207 31.5498 30.3181 31.7144 30.6111 32.0075C30.9042 32.3005 31.0688 32.6979 31.0688 33.1123C31.0688 33.5267 30.9042 33.9241 30.6111 34.2172C30.3181 34.5102 29.9207 34.6748 29.5063 34.6748Z" fill="black"/>
</g>
<defs>
<clipPath id="clip0_109_56">
<rect width="100" height="100" fill="white"/>
</clipPath>
</defs>
</svg>
