<svg width="101" height="102" viewBox="0 0 101 102" fill="none" xmlns="http://www.w3.org/2000/svg">
<path d="M99.3787 74.4297C100.316 74.4297 100.941 73.8047 100.941 72.8672V61.6172C100.941 58.1797 98.1287 55.3672 94.6912 55.3672H53.2849C51.4099 55.3672 49.5349 56.3047 48.4412 57.7109C47.3474 56.7734 45.9412 55.2109 45.3162 53.8047C49.0662 51.6172 52.0349 48.1797 53.7537 44.1172C54.5349 44.8984 55.4724 45.2109 56.5662 45.2109C58.7537 45.2109 60.6287 43.4922 60.7849 41.1484C65.0037 40.8359 67.9724 37.3984 67.9724 33.4922C67.9724 29.5859 65.1599 26.1484 60.7849 25.6797V21.6172C60.7849 10.2109 51.5662 0.835938 40.0037 0.835938H29.2224C17.8162 0.835938 8.44116 10.0547 8.44116 21.6172V25.6797C4.37866 25.9922 1.25366 29.4297 1.25366 33.4922C1.25366 37.5547 4.22241 40.8359 8.44116 41.1484C8.59741 43.3359 10.4724 45.2109 12.6599 45.2109C13.5974 45.2109 14.5349 44.8984 15.3162 44.2734C17.1912 48.3359 20.1599 51.7734 23.7537 53.8047C23.1287 55.3672 21.4099 57.0859 20.3162 58.0234C9.84741 58.6484 0.941162 67.8672 0.941162 78.9609V97.5547C0.941162 99.5859 2.50366 101.148 4.53491 101.148H27.8162C28.7537 101.148 29.3787 100.523 29.3787 99.5859C29.3787 98.6484 28.7537 98.0234 27.8162 98.0234H18.5974V80.3672C18.5974 79.4297 17.9724 78.8047 17.0349 78.8047C16.0974 78.8047 15.4724 79.4297 15.4724 80.3672V98.1797H4.53491C4.22241 98.1797 4.06616 98.0234 4.06616 97.7109V78.9609C4.06616 69.5859 11.5662 61.7734 20.7849 61.1484L33.7537 74.2734C34.3787 74.8984 35.3162 74.8984 35.9412 74.2734L47.0349 63.0234V90.8359H38.7537C36.2537 90.8359 34.0662 92.8672 34.0662 95.5234V99.7422C34.0662 100.68 34.6912 101.305 35.6287 101.305H99.3787C100.316 101.305 100.941 100.68 100.941 99.7422C100.941 95.5234 100.941 87.7109 100.941 83.6484C100.941 82.7109 100.316 82.0859 99.3787 82.0859C98.4412 82.0859 97.8162 82.7109 97.8162 83.6484V90.9922H50.1599V61.6172C50.1599 59.8984 51.5662 58.4922 53.2849 58.4922H94.6912C96.4099 58.4922 97.8162 59.8984 97.8162 61.6172V72.8672C97.8162 73.8047 98.4412 74.4297 99.3787 74.4297ZM97.8162 93.9609V98.0234C93.7537 98.0234 115.941 98.0234 37.1912 98.0234V95.3672C37.1912 94.5859 37.8162 93.8047 38.7537 93.8047C60.0037 93.9609 75.6287 93.9609 97.8162 93.9609ZM17.3474 26.7734C17.3474 17.8672 23.2849 13.1797 29.6912 13.1797H40.0037C46.2537 13.1797 51.4099 17.8672 52.3474 23.8047C49.5349 26.6172 46.8787 27.8672 44.3787 27.5547C40.0037 26.9297 37.0349 21.6172 37.0349 21.4609C36.7224 20.8359 36.0974 20.6797 35.4724 20.6797C34.8474 20.6797 34.3787 21.1484 34.0662 21.7734C33.9099 22.2422 29.6912 33.6484 17.3474 30.3672V26.7734ZM56.8787 42.2422C56.2537 42.2422 55.7849 41.7734 55.7849 41.1484V26.9297C55.7849 26.3047 56.2537 25.8359 56.8787 25.8359C57.5037 25.8359 57.9724 26.3047 57.9724 26.9297V41.1484C57.9724 41.6172 57.5037 42.2422 56.8787 42.2422ZM65.1599 33.4922C65.1599 35.8359 63.4412 37.8672 61.0974 38.1797C61.0974 38.0234 61.0974 28.6484 61.0974 28.9609C63.4412 29.2734 65.1599 31.1484 65.1599 33.4922ZM29.6912 4.11719H40.4724C50.1599 4.11719 58.1287 12.0859 58.1287 21.7734V22.7109C57.1912 22.3984 56.4099 22.3984 55.4724 22.8672C54.0662 15.6797 47.6599 10.0547 40.1599 10.0547H29.8474C22.1912 10.0547 15.9412 15.5234 14.5349 22.7109C13.5974 22.3984 12.9724 22.3984 12.1912 22.7109V21.7734C12.0349 12.0859 20.0037 4.11719 29.6912 4.11719ZM4.84741 33.4922C4.84741 31.1484 6.56616 29.1172 8.90991 28.8047V38.1797C6.56616 37.8672 4.84741 35.8359 4.84741 33.4922ZM13.2849 42.2422C12.6599 42.2422 12.1912 41.7734 12.1912 41.1484C12.1912 40.9922 12.1912 26.4609 12.1912 26.6172C12.3474 26.1484 12.6599 25.8359 13.1287 25.8359C13.5974 25.8359 13.9099 25.9922 14.2224 26.3047C14.2224 26.9297 14.5349 42.0859 14.5349 41.1484C14.3787 41.6172 13.9099 42.2422 13.2849 42.2422ZM17.5037 39.5859V33.4922C19.0662 33.8047 20.3162 33.9609 21.7224 33.9609C29.5349 33.9609 33.9099 28.4922 35.9412 25.2109C37.5037 27.2422 40.3162 29.8984 43.9099 30.5234C46.8787 30.9922 49.6912 30.0547 52.6599 27.7109C52.6599 27.8672 52.6599 39.1172 52.6599 38.3359H44.5349C43.9099 36.7734 42.3474 35.6797 40.6287 35.6797C38.2849 35.6797 36.4099 37.5547 36.4099 39.8984C36.4099 42.2422 38.2849 44.1172 40.6287 44.1172C42.3474 44.1172 43.9099 43.0234 44.5349 41.4609H51.7224C49.3787 48.6484 42.5037 53.6484 34.6912 53.4922C20.3162 53.3359 17.6599 39.8984 17.5037 39.5859ZM41.5662 40.0547C41.5662 40.6797 41.0974 41.1484 40.4724 41.1484C39.8474 41.1484 39.3787 40.6797 39.3787 40.0547C39.3787 39.4297 39.8474 38.9609 40.4724 38.9609C41.0974 38.9609 41.5662 39.4297 41.5662 40.0547ZM34.8474 70.9922L23.5974 59.7422C24.6912 58.6484 26.2537 57.0859 27.0349 55.2109C29.5349 56.3047 32.1912 56.7734 34.8474 56.7734C37.5037 56.7734 40.1599 56.3047 42.6599 55.2109C43.4412 57.0859 45.0037 58.6484 46.0974 59.7422L34.8474 70.9922Z" fill="black"/>
<path d="M65.4724 74.5859C65.4724 78.8047 68.9099 82.2422 73.1287 82.2422C77.3474 82.2422 80.7849 78.8047 80.7849 74.5859C80.7849 70.3672 77.3474 66.9297 73.1287 66.9297C68.9099 66.9297 65.4724 70.3672 65.4724 74.5859ZM77.6599 74.5859C77.6599 77.0859 75.6287 79.1172 73.1287 79.1172C70.6287 79.1172 68.5974 77.0859 68.5974 74.5859C68.5974 72.0859 70.6287 70.0547 73.1287 70.0547C75.6287 70.0547 77.6599 72.0859 77.6599 74.5859Z" fill="black"/>
</svg>
