<svg width="101" height="101" viewBox="0 0 101 101" fill="none" xmlns="http://www.w3.org/2000/svg">
<g clip-path="url(#clip0_89_129)">
<path d="M40.6155 14.7494C31.8792 6.01763 14.7834 5.00513 2.68253 5.00513C1.4293 5.00513 0.412109 6.0221 0.412109 7.27534C0.412109 19.3762 1.42015 36.472 10.1564 45.2085C13.8435 48.8956 19.4967 50.5439 25.0999 50.5439C31.189 50.5439 37.2236 48.5959 40.6155 45.204C47.1224 38.6971 48.3166 22.4459 40.6155 14.7494ZM37.4053 41.9981C32.5467 46.8521 19.0563 47.683 13.3714 41.9981C6.31964 34.9465 5.09812 20.6205 4.96637 9.55938C16.0275 9.69113 30.3535 10.9124 37.4051 17.9642C43.0902 23.6491 42.2593 37.1442 37.4053 41.9981Z" fill="#2E68FF"/>
<path d="M98.1416 13.9866C86.0407 13.9866 68.9449 14.9946 60.2084 23.7309C52.5075 31.4273 53.7015 47.6785 60.2084 54.1854C63.6003 57.5729 69.6305 59.5208 75.7195 59.5208C81.3227 59.5208 86.9714 57.877 90.6675 54.1901C99.3993 45.4539 100.412 28.3581 100.412 16.257C100.412 15.0038 99.3948 13.9866 98.1416 13.9866ZM87.4482 50.9751C81.7633 56.66 68.2683 55.829 63.4143 50.9751C58.5604 46.1211 57.7294 32.6261 63.4143 26.9412C70.4661 19.8894 84.7919 18.6681 95.8531 18.5364C95.7215 29.602 94.5 43.928 87.4482 50.9751Z" fill="#2E68FF"/>
<path d="M81.7453 33.6387C81.2095 32.4989 79.6747 32.1085 78.5441 32.6351C61.1305 40.822 52.5758 55.098 48.6888 69.7735C43.8802 38.5697 29.972 29.057 24.0737 25.0203C23.3381 24.5163 22.7659 24.1485 22.4482 23.8352C21.5627 22.9498 20.1232 22.9498 19.2378 23.8352C18.3524 24.7207 18.3524 26.1601 19.2378 27.0456C19.6873 27.4906 20.4638 28.0491 21.5127 28.7664C28.1603 33.3117 45.819 45.3946 45.819 93.5487C45.819 94.802 46.8362 95.8192 48.0895 95.8192C49.3427 95.8192 50.3599 94.802 50.3599 93.5534C50.3599 74.0966 55.5863 48.4461 80.4784 36.7492C80.4784 36.7447 80.8462 36.5721 80.8462 36.5721C81.9768 36.0362 82.281 34.7738 81.7453 33.6387Z" fill="#2E68FF"/>
</g>
<defs>
<clipPath id="clip0_89_129">
<rect width="100" height="99.9999" fill="white" transform="translate(0.412109 0.412109)"/>
</clipPath>
</defs>
</svg>
