<svg width="101" height="129" viewBox="0 0 101 129" fill="none" xmlns="http://www.w3.org/2000/svg">
<path d="M100.369 115.647L85.9642 77.7725C87.3875 76.9216 88.6246 75.7924 89.6015 74.4524C90.651 73.01 91.3694 71.3537 91.7055 69.6018C92.0416 67.8498 91.987 66.0453 91.5457 64.3169C91.1727 62.8056 91.2354 61.2195 91.7266 59.7423C92.2177 58.2651 93.1172 56.9572 94.3209 55.9701C95.7143 54.828 96.8364 53.3906 97.6061 51.7617C98.3759 50.1328 98.774 48.3532 98.7718 46.5516C98.7695 44.75 98.3669 42.9715 97.5931 41.3445C96.8193 39.7176 95.6936 38.2829 94.2974 37.1443C93.0981 36.1533 92.2038 34.8431 91.718 33.3651C91.2322 31.8871 91.1748 30.3018 91.5523 28.7925C91.99 27.0671 92.0422 25.2664 91.7052 23.5185C91.3682 21.7705 90.6502 20.1183 89.6023 18.6793C88.5278 17.2012 87.1406 15.9781 85.5394 15.0973C83.9383 14.2165 82.1626 13.6997 80.3388 13.5835C78.7699 13.4779 77.2612 12.9379 75.9816 12.0238C74.7021 11.1098 73.702 9.85783 73.0933 8.4079C72.4119 6.74807 71.3765 5.25691 70.0594 4.03844C68.7424 2.81997 67.1753 1.90354 65.4675 1.35309C63.7354 0.786713 61.9005 0.604919 60.0909 0.820376C58.2813 1.03583 56.5404 1.64335 54.9896 2.6006C53.6375 3.42673 52.0836 3.86384 50.499 3.86384C48.9144 3.86384 47.3605 3.42673 46.0084 2.6006C44.4576 1.64332 42.7167 1.03577 40.9071 0.820315C39.0975 0.604858 37.2626 0.786673 35.5305 1.35309C33.8233 1.90399 32.2569 2.82059 30.9403 4.03899C29.6237 5.25739 28.5888 6.74827 27.9075 8.4077C27.297 9.86033 26.2939 11.1142 25.0107 12.0287C23.7275 12.9431 22.215 13.4821 20.6426 13.5851C18.822 13.7031 17.0498 14.2209 15.452 15.1016C13.8543 15.9824 12.4703 17.2045 11.3985 18.6809C10.349 20.1234 9.63056 21.7796 9.2945 23.5316C8.95844 25.2835 9.013 27.088 9.45429 28.8165C9.82726 30.3278 9.76455 31.9139 9.2734 33.3911C8.78225 34.8684 7.88277 36.1763 6.67907 37.1634C5.28575 38.3055 4.16364 39.7429 3.39389 41.3718C2.62414 43.0007 2.226 44.7802 2.22825 46.5818C2.2305 48.3834 2.63309 50.162 3.4069 51.7889C4.18072 53.4158 5.30641 54.8505 6.70259 55.9891C7.9018 56.98 8.796 58.2902 9.28179 59.768C9.76758 61.2459 9.8251 62.831 9.44771 64.3402C9.00998 66.0657 8.95777 67.8664 9.2948 69.6143C9.63183 71.3622 10.3498 73.0144 11.3977 74.4534C12.3749 75.7926 13.6122 76.9211 15.0354 77.7713L0.630635 115.647C0.494888 116.003 0.464157 116.391 0.542088 116.764C0.620019 117.137 0.80334 117.48 1.07029 117.752C1.33725 118.024 1.67663 118.213 2.04815 118.298C2.41968 118.383 2.80775 118.359 3.16631 118.23L18.8561 112.591L26.8294 127.232C27.0005 127.547 27.2533 127.81 27.5612 127.993C27.8691 128.176 28.2207 128.272 28.5789 128.272C28.6237 128.272 28.6684 128.27 28.7132 128.268C29.0935 128.242 29.4584 128.108 29.7647 127.881C30.071 127.654 30.3058 127.344 30.4414 126.988L43.9278 91.5475C44.6519 91.2737 45.349 90.9335 46.0104 90.5312C47.3623 89.7055 48.9158 89.2687 50.5 89.2687C52.0842 89.2687 53.6377 89.7055 54.9896 90.5312L54.9916 90.5322C55.6512 90.9291 56.346 91.2644 57.0672 91.5338L70.5586 126.986C70.6942 127.342 70.929 127.652 71.2353 127.879C71.5416 128.106 71.9065 128.24 72.2868 128.266C72.3316 128.269 72.3763 128.271 72.4211 128.271C72.7793 128.271 73.1309 128.174 73.4388 127.991C73.7467 127.808 73.9995 127.545 74.1706 127.23L82.1439 112.589L97.8337 118.228C98.1922 118.358 98.5803 118.381 98.9518 118.296C99.3234 118.211 99.6628 118.022 99.9297 117.75C100.197 117.478 100.38 117.135 100.458 116.762C100.536 116.389 100.505 116.003 100.369 115.647ZM28.2578 121.521L21.5398 109.186C21.3122 108.768 20.943 108.446 20.4988 108.277C20.0545 108.108 19.5644 108.103 19.1169 108.263L5.89489 113.015L18.7369 79.252C19.37 79.4001 20.0136 79.4996 20.662 79.5493C22.2309 79.6549 23.7396 80.1949 25.0192 81.1089C26.2987 82.0229 27.2988 83.2749 27.9075 84.7249C28.5889 86.3846 29.6241 87.8756 30.941 89.0941C32.258 90.3125 33.8249 91.2289 35.5325 91.7795C36.764 92.1772 38.0494 92.3827 39.3435 92.3889L28.2578 121.521ZM43.9143 87.1404C42.8564 87.7937 41.6687 88.2081 40.4341 88.3548C39.1995 88.5015 37.9477 88.3769 36.7662 87.9897C35.6093 87.6177 34.5475 86.9979 33.6547 86.1734C32.762 85.3489 32.0598 84.3396 31.5972 83.2159C30.702 81.0752 29.2282 79.2261 27.3411 77.8759C25.454 76.5257 23.2282 75.7278 20.9131 75.5716C19.6752 75.4922 18.47 75.1411 17.3833 74.5432C16.2965 73.9453 15.3548 73.1153 14.6251 72.1123C13.9193 71.1423 13.4363 70.0286 13.2106 68.8504C12.9848 67.6723 13.022 66.4589 13.3194 65.2968C13.875 63.0535 13.7846 60.6987 13.0587 58.5046C12.3327 56.3105 11.0009 54.3665 9.21694 52.8972C8.27646 52.129 7.51897 51.1609 6.99951 50.0632C6.48006 48.9656 6.2117 47.766 6.21393 46.5517C6.21616 45.3373 6.48894 44.1387 7.01242 43.043C7.53591 41.9473 8.29696 40.982 9.24026 40.2172C11.0199 38.7444 12.3466 36.7983 13.0674 34.6036C13.7882 32.4088 13.8736 30.055 13.3138 27.8139C13.0199 26.6546 12.985 25.4449 13.2117 24.2707C13.4384 23.0964 13.9211 21.9866 14.6255 21.0201C15.358 20.0148 16.3032 19.1835 17.3938 18.5854C18.4844 17.9873 19.6935 17.6371 20.935 17.5598C23.2464 17.4006 25.468 16.6013 27.3511 15.2515C29.2342 13.9016 30.7045 12.0544 31.5976 9.91647C32.0598 8.79262 32.7619 7.78324 33.6547 6.95886C34.5475 6.13448 35.6095 5.51498 36.7666 5.14364C37.9485 4.7568 39.2005 4.63238 40.4354 4.77907C41.6703 4.92576 42.8583 5.34003 43.9167 5.99299C45.8996 7.20386 48.178 7.84452 50.5014 7.84452C52.8248 7.84452 55.1032 7.20386 57.0861 5.99299C58.1442 5.3402 59.3319 4.92602 60.5664 4.77933C61.8009 4.63264 63.0526 4.75697 64.2342 5.14364C65.3911 5.51563 66.4529 6.13547 67.3457 6.95996C68.2384 7.78445 68.9406 8.79374 69.4032 9.91747C70.2984 12.0582 71.7722 13.9073 73.6593 15.2575C75.5464 16.6076 77.7722 17.4056 80.0873 17.5618C81.3252 17.6412 82.5303 17.9923 83.6171 18.5902C84.7039 19.1881 85.6456 20.0181 86.3753 21.0211C87.0812 21.991 87.5642 23.1048 87.7899 24.2829C88.0156 25.461 87.9784 26.6745 87.681 27.8366C87.1254 30.0799 87.2158 32.4346 87.9417 34.6288C88.6677 36.8229 89.9995 38.7669 91.7835 40.2362C92.7239 41.0044 93.4814 41.9725 94.0009 43.0701C94.5203 44.1678 94.7887 45.3673 94.7865 46.5817C94.7842 47.796 94.5115 48.9946 93.988 50.0903C93.4645 51.1861 92.7034 52.1514 91.7601 52.9161C89.9806 54.3889 88.6538 56.3349 87.9329 58.5295C87.2121 60.7241 87.1265 63.0778 87.6862 65.3189C87.9802 66.4781 88.015 67.6879 87.7883 68.8621C87.5616 70.0363 87.0789 71.1462 86.3745 72.1126C85.642 73.118 84.6968 73.9493 83.6062 74.5474C82.5156 75.1456 81.3065 75.4957 80.065 75.573C77.7536 75.7322 75.532 76.5314 73.6489 77.8813C71.7658 79.2312 70.2955 81.0784 69.4024 83.2163C68.9402 84.3401 68.2381 85.3495 67.3453 86.1739C66.4525 86.9983 65.3905 87.6178 64.2334 87.9891C63.0517 88.3771 61.7995 88.5022 60.5644 88.3555C59.3293 88.2087 58.1412 87.7938 57.0833 87.1398C55.1004 85.9291 52.822 85.2886 50.4987 85.2887C48.1754 85.2888 45.8971 85.9295 43.9143 87.1404ZM81.8831 108.262C81.4356 108.102 80.9454 108.107 80.5011 108.276C80.0568 108.445 79.6876 108.767 79.4602 109.185L72.7422 121.52L61.658 92.3935C62.9518 92.3859 64.2367 92.1792 65.4675 91.7807C67.1754 91.2298 68.7425 90.3132 70.0598 89.0946C71.377 87.876 72.4127 86.3847 73.0945 84.7249C73.7042 83.2721 74.7068 82.018 75.9898 81.1035C77.2727 80.189 78.7852 79.6502 80.3574 79.5477C80.9995 79.4984 81.6369 79.3999 82.2639 79.2532L95.1051 113.014L81.8831 108.262Z" fill="#2E68FF"/>
<path d="M80.3923 46.5663C80.3923 40.6541 78.6392 34.8747 75.3545 29.9589C72.0699 25.0431 67.4013 21.2118 61.9392 18.9493C56.4771 16.6868 50.4667 16.0948 44.6682 17.2482C38.8696 18.4016 33.5433 21.2486 29.3627 25.4291C25.1822 29.6097 22.3352 34.936 21.1818 40.7345C20.0284 46.5331 20.6204 52.5435 22.8829 58.0056C25.1454 63.4677 28.9767 68.1363 33.8925 71.4209C38.8083 74.7055 44.5877 76.4587 50.4999 76.4587C58.4251 76.4499 66.0233 73.2977 71.6273 67.6937C77.2313 62.0897 80.3835 54.4915 80.3923 46.5663ZM50.4999 72.473C45.376 72.473 40.3672 70.9536 36.1068 68.107C31.8465 65.2603 28.526 61.2142 26.5651 56.4804C24.6043 51.7465 24.0913 46.5375 25.0909 41.5121C26.0905 36.4867 28.5579 31.8705 32.181 28.2474C35.8041 24.6243 40.4203 22.1569 45.4457 21.1573C50.4711 20.1577 55.6801 20.6707 60.414 22.6315C65.1478 24.5924 69.1939 27.9129 72.0406 32.1732C74.8873 36.4336 76.4067 41.4424 76.4067 46.5663C76.3989 53.4348 73.667 60.0198 68.8102 64.8766C63.9534 69.7333 57.3684 72.4653 50.4999 72.473Z" fill="#2E68FF"/>
<path d="M66.3494 39.9582L56.6323 38.5463L52.2868 29.742C52.1034 29.4312 51.8422 29.1736 51.5289 28.9947C51.2156 28.8158 50.861 28.7217 50.5002 28.7217C50.1394 28.7217 49.7848 28.8158 49.4715 28.9947C49.1582 29.1736 48.897 29.4312 48.7136 29.742L44.368 38.5463L34.651 39.9582C34.2828 40.0114 33.9369 40.1667 33.6524 40.4063C33.3678 40.646 33.1561 40.9605 33.041 41.3143C32.926 41.6681 32.9123 42.047 33.0015 42.4082C33.0906 42.7694 33.2791 43.0984 33.5456 43.358L40.5789 50.2113L38.9189 59.8885C38.8562 60.2547 38.8973 60.6312 39.0373 60.9753C39.1773 61.3195 39.4108 61.6177 39.7113 61.8362C40.0118 62.0547 40.3675 62.1848 40.738 62.2118C41.1086 62.2389 41.4794 62.1618 41.8085 61.9893L50.5002 57.4208L59.1915 61.9893C59.5206 62.1618 59.8914 62.2389 60.2619 62.2118C60.6325 62.1848 60.9881 62.0547 61.2887 61.8362C61.5892 61.6177 61.8227 61.3195 61.9627 60.9753C62.1027 60.6312 62.1437 60.2547 62.0811 59.8885L60.4211 50.2113L67.4544 43.358C67.7209 43.0984 67.9093 42.7694 67.9985 42.4082C68.0877 42.047 68.074 41.6681 67.9589 41.3143C67.8439 40.9605 67.6321 40.646 67.3476 40.4063C67.0631 40.1667 66.7175 40.0114 66.3494 39.9582ZM56.8894 48.0889C56.6583 48.3147 56.4855 48.5931 56.3858 48.9004C56.2861 49.2077 56.2625 49.5346 56.3171 49.853L57.4711 56.5828L51.4265 53.4056C51.1407 53.2553 50.8227 53.1768 50.4998 53.1768C50.1769 53.1768 49.8589 53.2553 49.5731 53.4056L43.5293 56.582L44.6833 49.8522C44.7379 49.5338 44.7143 49.2069 44.6146 48.8996C44.5149 48.5924 44.3421 48.3139 44.111 48.0881L39.2208 43.3221L45.9779 42.3402C46.2977 42.2938 46.6015 42.1703 46.8629 41.9802C47.1243 41.7902 47.3355 41.5393 47.4783 41.2494L50.5002 35.1274L53.5225 41.2497C53.6653 41.5397 53.8765 41.7906 54.1379 41.9806C54.3993 42.1707 54.7031 42.2942 55.0229 42.3406L61.78 43.3225L56.8894 48.0889Z" fill="#2E68FF"/>
</svg>
