<svg width="100" height="80" viewBox="0 0 100 80" fill="none" xmlns="http://www.w3.org/2000/svg">
<path d="M7.15614 0C3.24054 0 0 3.24053 0 7.15615V61.899C0 65.8146 3.24055 69.0505 7.15614 69.0505H51.4973V72.6216C51.4973 76.5372 54.7146 79.7545 58.6302 79.7545H79.4755C83.3911 79.7545 86.6084 76.5372 86.6084 72.6216V69.0505H92.8671C96.7827 69.0505 100 65.8146 100 61.899V7.15615C100 3.24053 96.7827 0 92.8671 0H7.15614ZM7.15614 4.76611H92.8671C94.2272 4.76611 95.2385 5.79604 95.2385 7.15615V17.8555H4.76611V7.15615C4.76611 5.79604 5.79604 4.76611 7.15614 4.76611ZM4.76611 22.6216H95.2385V61.899C95.2385 63.2591 94.2272 64.2891 92.8671 64.2891H86.6084V56.8911C86.6084 53.6994 84.4563 51.0024 81.5447 50.1023V45.8198C81.5447 38.9446 75.9328 33.3395 69.0505 33.3395C62.1682 33.3395 56.5563 38.9446 56.5563 45.8198V50.1023C53.6458 51.003 51.4973 53.7002 51.4973 56.8911V64.2891H7.15614C5.79603 64.2891 4.76611 63.2591 4.76611 61.899V22.6216ZM69.0505 38.1057C73.3832 38.1057 76.7832 41.5061 76.7832 45.8198V49.7536H61.2992V45.8198C61.2992 41.5061 64.7178 38.1057 69.0505 38.1057ZM16.6791 41.6721C15.3638 41.6669 14.2936 42.7282 14.289 44.0435C14.2838 45.3657 15.3569 46.4388 16.6791 46.4336H40.4771C41.7993 46.4388 42.8723 45.3657 42.8671 44.0435C42.8626 42.7282 41.7924 41.6669 40.4771 41.6721H16.6791ZM16.6791 53.5665C15.3569 53.5612 14.2838 54.639 14.289 55.9611C14.2936 57.2765 15.3638 58.3378 16.6791 58.3326H33.3395C34.648 58.3281 35.7065 57.2696 35.711 55.9611C35.7162 54.6458 34.6548 53.571 33.3395 53.5665H16.6791ZM58.6302 54.5197H79.4755C80.8356 54.5197 81.8469 55.531 81.8469 56.8911V72.6216C81.8469 73.9817 80.8356 74.993 79.4755 74.993H58.6302C57.27 74.993 56.2401 73.9817 56.2401 72.6216C56.2468 67.3716 56.2444 62.1442 56.2587 56.8911C56.2637 55.041 57.492 54.5197 58.6302 54.5197ZM69.0505 58.8069C67.7283 58.8016 66.6553 59.8747 66.6605 61.1969V68.3158C66.6552 69.638 67.7283 70.7111 69.0505 70.7059C70.3658 70.7013 71.4271 69.6311 71.4219 68.3158V61.1969C71.4272 59.8816 70.3658 58.8114 69.0505 58.8069Z" fill="black"/>
</svg>
